<?xml version="1.0" encoding="utf-8" standalone="no"?>
<!DOCTYPE svg PUBLIC "-//W3C//DTD SVG 1.1//EN" "http://www.w3.org/Graphics/SVG/1.1/DTD/svg11.dtd">
<svg xmlns="http://www.w3.org/2000/svg" xmlns:xl="http://www.w3.org/1999/xlink" version="1.1" viewBox="344 283 154 29" width="154pt" height="29pt" xmlns:dc="http://purl.org/dc/elements/1.1/"><metadata> Produced by OmniGraffle 6.1 <dc:date>2014-12-19 13:12:53 +0000</dc:date></metadata><defs/><g stroke="none" stroke-opacity="1" stroke-dasharray="none" fill="none" fill-opacity="1"><title>Canvas 1</title><g><title>Layer 1</title><path d="M 373.8579 297.6394 L 374.8029 298.5844 L 364.4099 308.9794 L 363.4649 308.0344 Z" fill="#008393"/><path d="M 360.6289 290.0808 L 361.5739 289.1358 L 371.0239 298.5858 L 370.0779 299.5298 Z" fill="#df1417"/><path d="M 358.7402 291.9714 L 359.6842 291.0264 L 366.2992 297.6404 L 365.3542 298.5854 Z" fill="#df1417"/><path d="M 357.7949 285.3562 L 358.7399 286.3012 L 354.0159 291.0262 L 353.0699 290.0812 Z" fill="#008393"/><path d="M 345.5112 297.6404 L 358.7392 310.8694 L 357.7952 311.8134 L 344.5662 298.5844 Z" fill="#008393"/><path d="M 351.1812 295.7507 L 357.7952 289.1367 L 358.7402 290.0807 L 352.1252 296.6947 Z" fill="#df1417"/><path d="M 358.7397 308.9792 L 365.3537 302.3652 L 366.2987 303.3092 L 359.6847 309.9232 Z" fill="#df1417"/><path d="M 359.6846 283.4665 L 370.0796 293.8605 L 369.1346 294.8055 L 358.7406 284.4105 Z" fill="#008393"/><path d="M 347.4009 295.7507 L 350.2359 298.5847 L 349.2909 299.5297 L 346.4559 296.6947 Z" fill="#008393"/><path d="M 391.2271 297.6579 C 391.2271 299.9189 389.6871 301.1989 387.3671 301.1989 L 385.7871 301.1989 L 385.7871 294.0779 L 387.3671 294.0779 C 389.6871 294.0779 391.2271 295.3789 391.2271 297.6179 Z M 395.2071 297.5579 C 395.2071 293.5179 392.3071 290.6379 387.3071 290.6379 L 381.9061 290.6379 L 381.9061 304.6379 L 387.2271 304.6379 C 392.2671 304.6379 395.2071 301.6379 395.2071 297.5979 Z" fill="#df1417"/><path d="M 409.2036 294.0378 L 413.4046 294.0378 L 413.4046 304.6388 L 417.2846 304.6388 L 417.2846 294.0378 L 421.4846 294.0378 L 421.4846 290.6388 L 409.2036 290.6388 Z" fill="#df1417"/><path d="M 450.8232 295.738 L 447.9432 290.638 L 443.8252 290.638 L 443.5222 290.638 L 439.8042 290.638 L 437.3642 298.738 L 434.6642 290.598 L 431.3242 290.598 L 428.6242 298.738 L 426.1832 290.638 L 422.0842 290.638 L 426.7632 304.739 L 430.1432 304.739 L 432.9442 296.678 L 435.7642 304.739 L 439.1442 304.739 L 443.7182 290.96 L 448.8432 299.398 L 448.8432 304.638 L 452.7432 304.638 L 452.7432 299.339 L 458.0632 290.638 L 453.7232 290.638 Z" fill="#df1417"/><path d="M 462.9834 290.6384 L 459.1024 290.6384 L 459.1024 304.6384 L 469.7634 304.6384 L 469.7634 301.2384 L 462.9834 301.2384 Z" fill="#df1417"/><path d="M 475.1025 299.1189 L 481.8235 299.1189 L 481.8235 296.0579 L 475.1025 296.0579 L 475.1025 293.9379 L 482.5235 293.9379 L 482.5235 290.6389 L 471.2625 290.6389 L 471.2625 304.6389 L 482.6235 304.6389 L 482.6235 301.3389 L 475.1025 301.3389 Z" fill="#df1417"/><path d="M 492.9629 295.698 C 492.9629 296.719 492.2029 297.358 490.8829 297.358 L 488.3229 297.358 L 488.3229 293.998 L 490.8629 293.998 C 492.1629 293.998 492.9629 294.558 492.9629 295.658 Z M 493.9839 299.759 C 495.7239 299.018 496.8629 297.598 496.8629 295.459 L 496.8629 295.419 C 496.8629 294.038 496.4429 292.958 495.6229 292.158 C 494.6829 291.198 493.2029 290.638 491.0639 290.638 L 484.4419 290.638 L 484.4419 304.638 L 488.3229 304.638 L 488.3229 300.398 L 489.9839 300.398 L 490.0239 300.398 L 492.8429 304.638 L 497.3229 304.638 Z" fill="#df1417"/><path d="M 404.626 290.5378 L 400.886 290.5378 L 399.404 294.0428 L 406.107 294.0428 Z" fill="#df1417"/><path d="M 402.8203 295.3786 L 404.2863 299.1186 L 401.1463 299.1186 L 402.6313 295.3786 L 398.8403 295.3786 L 394.9253 304.6386 L 399.0063 304.6386 L 400.0063 302.1386 L 405.4063 302.1386 L 406.4263 304.6386 L 410.5863 304.6386 L 406.6723 295.3786 Z" fill="#df1417"/></g></g></svg>
