<svg id="Layer_1" xmlns="http://www.w3.org/2000/svg" viewBox="0 0 1190.6 841.9"><style>.st0{fill:#ea3592}</style><g id="Logo"><path class="st0" d="M742.3 352c-19.1-7.6-41.6 12.4-50.2 32.6-8.6 20.3-11.5 60.7-11.5 60.7s14.3 9.4 33.1 9.7c22.8.4 37.9-19.1 44.4-38.8 10.1-31 3.3-56.5-15.8-64.2"/><path class="st0" d="M755.2 313.8c28.1 0 51.9 18.7 51.6 57.5-.2 10.5-1.5 20.8-3.7 30.5l117.3-131.3-202.3-44.8-19.2 114.8c17.5-19 36.8-26.7 56.3-26.7M633 466.4l12.3-73.5L675 216.2l-404.6-89.7c120.5 87.1 206 178.2 243.8 298.7L532.4 317h44.7l-8.2 39.3c10.2-16.8 31.4-37.5 50.9-41.3 3.7-.7 11-.8 13-.5l-7.9 49.6c-19.3-2.9-57.7 12.8-63.2 44L548.1 489h-18.9c.4 2.6.9 5.2 1.3 7.9 9.4 64.3 7 136.7-8.8 220L724 490.4c-.2 0-.3.1-.5.1-45.6 9.1-90.5-24.1-90.5-24.1M766.5 442.9l-.3.3.1-.1c.1-.1.1-.2.2-.2M766.4 443.1z"/></g></svg>