<?xml version="1.0" encoding="utf-8"?>
<!-- Generator: Adobe Illustrator 19.2.1, SVG Export Plug-In . SVG Version: 6.00 Build 0)  -->
<svg version="1.1" id="Lager_1" xmlns="http://www.w3.org/2000/svg" xmlns:xlink="http://www.w3.org/1999/xlink" x="0px" y="0px"
	 viewBox="0 0 436.5 114.9" style="enable-background:new 0 0 436.5 114.9;" xml:space="preserve">
<style type="text/css">
	.st0{clip-path:url(#SVGID_2_);fill:#008739;}
	.st1{clip-path:url(#SVGID_2_);fill:none;stroke:#008739;stroke-width:5.0016;}
	.st2{fill:none;stroke:#008739;stroke-width:5.0016;}
</style>
<g>
	<g>
		<g>
			<defs>
				<rect id="SVGID_1_" x="51.8" y="19.2" width="332.9" height="76.5"/>
			</defs>
			<clipPath id="SVGID_2_">
				<use xlink:href="#SVGID_1_"  style="overflow:visible;"/>
			</clipPath>
			<path class="st0" d="M148.1,67.4c3.2,1.6,7.7,2.9,13,3c4,0.1,7.8-0.6,7.9-3.9c0.1-7.8-22.3-3.3-22.1-18.5
				c0.2-10.1,11.3-12.6,20.8-12.5c4.5,0.1,9,0.8,12.2,1.8l-1,8.6c-3.2-1.4-6.9-2-10.5-2.1c-3.2-0.1-8.5,0.1-8.5,3.8
				c-0.1,6.8,22.3,2.6,22.1,17.7c-0.2,10.9-10.5,13.6-21.1,13.4c-4.4-0.1-9.9-0.8-14.1-2L148.1,67.4L148.1,67.4z"/>
			<path class="st0" d="M211.1,35.3c15.6,0,23.7,8.2,23.7,21.7c0,13.3-8.3,21.7-23.7,21.7c-15.5,0-23.7-8.3-23.7-21.7
				C187.4,43.5,195.5,35.3,211.1,35.3L211.1,35.3z M211.1,70.4c7.7,0,10.7-6.5,10.7-13.4c0-7.3-3.1-13.4-10.7-13.4
				c-7.7,0-10.7,6.1-10.7,13.4C200.4,63.9,203.4,70.4,211.1,70.4L211.1,70.4z"/>
			<path class="st0" d="M242.1,36h17.2c16.5,0,28,4.6,28,20.8c0,15.7-11.9,21.1-28,21.1h-17.2V36L242.1,36z M254.7,69.6h4.9
				c9.4,0,14.7-4.3,14.7-12.7c0-8.3-5.5-12.7-14.7-12.7h-4.9V69.6L254.7,69.6z"/>
			<path class="st0" d="M293.9,36h22.5c8.4,0,15.3,3.4,15.3,10.6c0,5.6-3,9.3-9.1,10.6v0.1c4.1,1,4.3,4.1,6.7,9.2l4.6,11.4h-13.2
				l-2.7-7.6c-2.6-7.2-4.2-9-8.9-9h-2.6v16.6h-12.6V36L293.9,36z M306.5,53.4h3.3c4.1,0,9.2-0.1,9.2-4.9c0-3.9-4.4-4.6-9.2-4.6h-3.3
				V53.4L306.5,53.4z"/>
			<path class="st0" d="M351,36h15.5l18.2,41.9h-13.8l-3.5-8.9h-17.8l-3.7,8.9H333L351,36L351,36z M358.7,44.7h-0.1l-6.1,16.4h11.9
				L358.7,44.7L358.7,44.7z"/>
			<path class="st0" d="M208.9,28.3c0,2.6-2.5,4.7-5.6,4.7c-3.1,0-5.6-2.1-5.6-4.7c0-2.6,2.5-4.7,5.6-4.7
				C206.4,23.5,208.9,25.6,208.9,28.3L208.9,28.3z M225.4,28.3c0,2.6-2.5,4.7-5.6,4.7c-3.1,0-5.6-2.1-5.6-4.7c0-2.6,2.5-4.7,5.6-4.7
				C222.9,23.5,225.4,25.6,225.4,28.3L225.4,28.3z"/>
			<path class="st1" d="M88.6,51.4c-3.7,4.9-18.4,24.4-18.4,24.4h38.5c0,0-15.1-20-18.6-24.6"/>
			<polygon class="st1" points="89.4,29.9 73,51.6 105.8,51.6 89.4,29.9 			"/>
		</g>
	</g>
	<circle class="st2" cx="89.4" cy="57.4" r="35.8"/>
</g>
</svg>
