<svg width="321" height="90" viewBox="740 17 321 90" xmlns="http://www.w3.org/2000/svg" xmlns:xlink="http://www.w3.org/1999/xlink"><defs><path id="a" d="M0 .317v33.91h23.82V.317H0z"/><path id="c" d="M2.46.408H.253v2.084h2.205V.408z"/><path id="e" d="M1.428 1.281v-1H.27v1h1.157z"/></defs><g stroke-width="1.3" fill="none" fill-rule="evenodd"><g transform="translate(740 71.385)"><mask id="b" fill="#fff"><use xlink:href="#a"/></mask><path d="M7.956 6.117H0C0 5.15.085 4.192.257 3.24c.171-.95.429-1.925.773-2.923h22.79a15.8 15.8 0 01-.257 2.853 21.766 21.766 0 01-.772 2.947h-7.956L9.97 33.947c-1.28.187-2.45.28-3.51.28a20.48 20.48 0 01-3.37-.28l4.867-27.83z" fill="#6686A6" mask="url(#b)"/></g><path d="M765.271 80.214c.562-3.274.843-5.753.843-7.437a13.332 13.332 0 00-.094-1.637 17.35 17.35 0 011.825-.21c.686-.047 1.28-.07 1.779-.07.904 0 1.902.093 2.994.28.156.468.235 1.06.235 1.777 0 1.373-.188 3.04-.562 5.005l-1.217 6.549c.811-1.092 1.887-2.004 3.23-2.737a8.758 8.758 0 014.258-1.1c1.872 0 3.33.477 4.376 1.428 1.045.95 1.568 2.534 1.568 4.747 0 .468-.032.967-.094 1.497-.063.53-.14 1.092-.234 1.683l-2.715 15.342a21.88 21.88 0 01-3.416.28c-1.092 0-2.168-.092-3.23-.28l2.622-14.827a9.118 9.118 0 00.187-1.777c0-.936-.203-1.59-.608-1.965-.406-.374-.983-.561-1.732-.561-.437 0-.929.11-1.474.328-.546.218-1.1.677-1.661 1.38-.562.7-1.108 1.691-1.638 2.97-.531 1.278-.983 2.962-1.357 5.051l-1.732 9.401c-.593.094-1.178.156-1.755.188a27.245 27.245 0 01-3.183 0 17.833 17.833 0 01-1.661-.188l4.446-25.117zm30.407 20.626c1.185 0 2.183-.373 2.995-1.122.81-.748 1.474-1.675 1.989-2.783a14.111 14.111 0 001.1-3.508c.217-1.231.327-2.345.327-3.344 0-2.868-1.17-4.303-3.51-4.303-1.186 0-2.168.39-2.948 1.17-.78.78-1.42 1.73-1.919 2.853-.5 1.122-.85 2.308-1.053 3.554-.203 1.247-.304 2.355-.304 3.321 0 2.776 1.107 4.163 3.323 4.163m-.609 5.052c-3.214 0-5.577-.842-7.09-2.526-1.513-1.684-2.27-3.991-2.27-6.922 0-1.872.281-3.75.843-5.637a16.262 16.262 0 012.527-5.098c1.123-1.512 2.534-2.744 4.235-3.695 1.7-.951 3.69-1.427 5.967-1.427 3.245 0 5.624.858 7.137 2.573 1.513 1.714 2.27 4.038 2.27 6.968 0 1.935-.274 3.836-.819 5.707a15.648 15.648 0 01-2.504 5.052c-1.123 1.496-2.543 2.705-4.259 3.625-1.716.92-3.728 1.38-6.037 1.38m16.006-14.36c.343-1.964.6-3.702.772-5.216.171-1.511.257-2.689.257-3.53v-.866c0-.234-.016-.491-.047-.772 1.03-.186 2.06-.28 3.089-.28.468 0 .936.023 1.404.07.468.047.967.117 1.498.21.062.25.124.546.187.889.062.344.093.858.093 1.544 0 .28-.008.56-.023.841-.016.281-.055.625-.117 1.03.717-1.34 1.785-2.48 3.206-3.415a8.37 8.37 0 014.703-1.404c1.653 0 2.94.368 3.861 1.1.92.733 1.474 1.941 1.661 3.625.75-1.31 1.84-2.424 3.276-3.345a8.508 8.508 0 014.68-1.38c1.872 0 3.292.46 4.259 1.38.966.921 1.45 2.456 1.45 4.608 0 1.06-.11 2.183-.327 3.367l-2.715 15.342c-1.186.188-2.324.28-3.416.28s-2.169-.092-3.229-.28l2.621-14.827c.124-.717.187-1.387.187-2.011 0-.843-.172-1.434-.515-1.778-.343-.342-.873-.514-1.591-.514-.437 0-.912.11-1.427.328-.515.218-1.038.638-1.568 1.263-.53.623-1.03 1.48-1.498 2.572-.467 1.092-.858 2.51-1.17 4.256l-1.871 10.711c-1.186.188-2.325.28-3.417.28-1.092 0-2.169-.092-3.229-.28l2.62-14.827c.125-.717.188-1.387.188-2.011 0-.843-.172-1.434-.515-1.778-.344-.342-.874-.514-1.59-.514-.438 0-.921.11-1.452.328-.53.218-1.06.678-1.59 1.38-.532.701-1.046 1.69-1.545 2.97-.5 1.278-.936 2.962-1.31 5.051l-1.732 9.401c-1.217.188-2.356.28-3.417.28a18.5 18.5 0 01-3.228-.28l2.527-13.798zm63.973 3.134a9.37 9.37 0 01-1.498-.725 6.218 6.218 0 01-1.38-1.122 5.35 5.35 0 01-1.03-1.661c-.265-.655-.397-1.434-.397-2.339 0-1.31.257-2.47.772-3.484a7.442 7.442 0 012.152-2.573c.92-.701 1.997-1.24 3.23-1.614 1.232-.374 2.565-.561 4-.561.5 0 1.046.024 1.639.07.592.047 1.193.117 1.802.21.608.094 1.2.227 1.778.4a8.3 8.3 0 011.568.63c-.064.81-.21 1.614-.444 2.409-.235.795-.617 1.598-1.147 2.408-.655-.342-1.451-.623-2.387-.841a11.765 11.765 0 00-2.668-.328c-.343 0-.725.032-1.147.094a5.023 5.023 0 00-1.193.327c-.374.156-.686.39-.936.702-.25.312-.374.701-.374 1.169 0 .935.592 1.668 1.779 2.199l1.824.795c.592.25 1.17.537 1.732.865a6.54 6.54 0 011.497 1.193 5.562 5.562 0 011.054 1.637c.265.624.397 1.356.397 2.198 0 1.56-.312 2.908-.935 4.046a8.531 8.531 0 01-2.528 2.853c-1.06.765-2.317 1.333-3.767 1.707-1.45.374-2.988.561-4.61.561-.999 0-2.106-.102-3.322-.304-1.217-.203-2.31-.506-3.276-.912a11.785 11.785 0 011.403-5.052 12.05 12.05 0 002.973.913 17.47 17.47 0 002.924.257c.469 0 .967-.047 1.498-.14a5.26 5.26 0 001.45-.468 3.106 3.106 0 001.1-.912c.297-.389.445-.865.445-1.426 0-.624-.218-1.13-.655-1.52-.438-.39-1.046-.741-1.825-1.053l-1.498-.608zm19.375 3.788c1.185.438 2.394.812 3.627 1.123 1.231.312 2.425.467 3.58.467.966 0 1.863-.108 2.69-.327.826-.217 1.545-.545 2.153-.981a4.792 4.792 0 001.427-1.591c.344-.624.515-1.357.515-2.199 0-.623-.14-1.169-.421-1.636a5.14 5.14 0 00-1.076-1.263 9.209 9.209 0 00-1.545-1.052 34.935 34.935 0 01-1.778-1.053c-1.997-1.184-3.58-2.41-4.75-3.672s-1.755-2.752-1.755-4.467c0-1.684.296-3.188.889-4.514a9.112 9.112 0 012.527-3.343c1.092-.904 2.41-1.598 3.955-2.082 1.544-.483 3.283-.725 5.217-.725 1.717 0 3.198.125 4.447.374 1.247.25 2.558.64 3.93 1.169a15.8 15.8 0 01-.654 2.667 13.08 13.08 0 01-1.31 2.759 18.275 18.275 0 00-2.785-1.075c-.952-.281-2.192-.421-3.72-.421-.562 0-1.163.047-1.803.14a5.52 5.52 0 00-1.731.537 3.643 3.643 0 00-1.287 1.1c-.344.468-.515 1.075-.515 1.824 0 1.06.382 1.934 1.147 2.62.764.685 1.738 1.371 2.924 2.057a49.636 49.636 0 012.949 1.778 14.92 14.92 0 012.387 1.917 7.881 7.881 0 011.614 2.316c.39.858.585 1.847.585 2.97 0 1.59-.288 3.118-.865 4.583a10.163 10.163 0 01-2.668 3.836c-1.202 1.092-2.723 1.964-4.563 2.62-1.841.654-4.025.981-6.552.981-2.933 0-5.819-.545-8.658-1.637.125-.935.352-1.878.679-2.83.328-.95.725-1.94 1.194-2.97m23.573-17.305a25.322 25.322 0 013.837-.281c.53 0 1.07.016 1.615.046.546.032 1.084.11 1.614.234l.656 16.792 6.973-16.792c.967-.186 2.027-.28 3.182-.28 1.154 0 2.294.094 3.417.28l1.31 16.839 4.54-10.524c.53-1.216.888-2.292 1.075-3.227.188-.936.282-1.715.282-2.339a3.53 3.53 0 00-.024-.421 2.598 2.598 0 01-.024-.328c1.03-.186 2.216-.28 3.558-.28 1.278 0 2.464.094 3.556.28v.188c0 .997-.171 2.042-.515 3.133-.343 1.092-.905 2.386-1.684 3.883l-8.705 16.979c-.562.093-1.194.163-1.895.21-.703.046-1.366.07-1.989.07-1.123 0-2.2-.093-3.229-.28l-1.357-15.389-6.6 15.389c-.592.061-1.216.124-1.87.187-.657.061-1.297.093-1.92.093-.53 0-1.092-.024-1.684-.07a15.538 15.538 0 01-1.638-.21l-2.481-24.183zm57.575 10.383c.344-1.964.6-3.702.773-5.216.17-1.511.257-2.689.257-3.53v-.866a7.03 7.03 0 00-.047-.772c1.03-.186 2.06-.28 3.09-.28.467 0 .935.023 1.403.07.468.047.967.117 1.497.21.063.25.125.546.188.889.062.344.094.858.094 1.544a11.047 11.047 0 01-.14 1.87 9.754 9.754 0 011.403-1.87 9.269 9.269 0 011.919-1.544 10.02 10.02 0 012.317-1.029 8.619 8.619 0 012.503-.375c1.872 0 3.33.477 4.375 1.428s1.569 2.534 1.569 4.747c0 .467-.032.967-.094 1.497-.063.53-.14 1.092-.234 1.683l-2.714 15.342c-1.187.188-2.324.28-3.416.28-1.093 0-2.17-.092-3.23-.28l2.621-14.827a9.112 9.112 0 00.187-1.777c0-.935-.203-1.59-.608-1.964-.406-.375-.983-.562-1.732-.562-.437 0-.928.11-1.474.328-.546.218-1.1.678-1.662 1.38-.56.701-1.107 1.69-1.637 2.97-.531 1.278-.983 2.962-1.357 5.051l-1.732 9.401a22.51 22.51 0 01-3.416.28c-1.093 0-2.17-.092-3.23-.28l2.527-13.798zM860.227 94.64a20.92 20.92 0 00-1.208-.162c-.437-.047-.829-.07-1.178-.071-1.557-.003-2.84.264-3.85.797-1.011.534-1.633 1.398-1.866 2.592-.156.796-.101 1.408.164 1.838.266.429.625.744 1.08.943.452.2.952.323 1.5.37a17.02 17.02 0 001.44.072c.477 0 .96-.037 1.452-.113a83.92 83.92 0 001.28-.204l1.186-6.061zm.925-4.729c.143-.734.133-1.332-.031-1.792a2.116 2.116 0 00-.837-1.08c-.395-.261-.908-.438-1.54-.53a14.98 14.98 0 00-2.143-.143c-1.715-.003-3.605.315-5.668.955a10.17 10.17 0 01-.56-2.252c-.086-.704-.031-1.546.16-2.526a29.74 29.74 0 014.391-1.003c1.44-.21 2.763-.316 3.97-.314 3.304.005 5.736.776 7.295 2.309 1.56 1.534 2.01 3.985 1.35 7.351l-2.694 13.776c-1.18.336-2.592.654-4.24.957-1.649.303-3.474.453-5.475.45-1.62-.003-3.079-.143-4.375-.42-1.296-.279-2.366-.74-3.208-1.384a4.975 4.975 0 01-1.755-2.484c-.327-1.01-.346-2.25-.059-3.72.288-1.47.854-2.701 1.7-3.695a9.847 9.847 0 012.993-2.384 13.729 13.729 0 013.706-1.279 20.146 20.146 0 013.89-.385c.92.003 1.928.05 3.022.144l.108-.55zM965.34 94.64c-.37-.061-.772-.116-1.207-.162a11.45 11.45 0 00-1.178-.071c-1.557-.003-2.84.264-3.851.797-1.01.534-1.633 1.398-1.865 2.592-.156.796-.102 1.408.165 1.838.265.429.624.744 1.078.943.453.2.954.323 1.5.37.547.047 1.027.071 1.44.072a9.48 9.48 0 001.452-.113 83.92 83.92 0 001.28-.204l1.186-6.061zm.926-4.729c.143-.734.133-1.332-.031-1.791a2.116 2.116 0 00-.838-1.082c-.394-.26-.907-.437-1.54-.53a15.047 15.047 0 00-2.142-.142c-1.715-.003-3.605.315-5.669.955a10.147 10.147 0 01-.56-2.251c-.085-.705-.031-1.547.16-2.527a29.7 29.7 0 014.392-1.002c1.439-.212 2.763-.317 3.971-.315 3.304.005 5.735.776 7.293 2.309 1.56 1.534 2.01 3.985 1.352 7.351l-2.696 13.776c-1.179.336-2.592.654-4.24.957-1.648.303-3.473.453-5.475.45-1.62-.003-3.078-.143-4.374-.42-1.297-.279-2.366-.74-3.21-1.384a4.978 4.978 0 01-1.754-2.484c-.327-1.01-.347-2.25-.058-3.72.287-1.47.854-2.701 1.7-3.695a9.851 9.851 0 012.992-2.384 13.755 13.755 0 013.707-1.279 20.146 20.146 0 013.889-.385c.921.003 1.928.05 3.023.144l.108-.55zm54.201-30.845l-1.19-2.054 1.19-2.053h2.373l1.183 2.053-1.183 2.054zm-30.245 9.154l-.786-1.36.786-1.358h1.57l.785 1.359-.786 1.359z" fill="#6686A6"/><path fill="#FBB900" d="M978.703 66.873l-1.324-2.292 1.324-2.292h2.648l1.323 2.292-1.323 2.292z"/><path fill="#6686A6" d="M980.945 70.814l-.896-1.552.896-1.551h1.793l.897 1.55-.897 1.553z"/><path fill="#ED7103" d="M974.747 68.115l-1.138-1.385.636-1.676 1.767-.29 1.138 1.385-.634 1.676z"/><path fill="#6686A6" d="M972.558 70.335l-.867-1.056.483-1.276 1.346-.22.867 1.055-.483 1.276z"/><path fill="#D30340" d="M969.914 68.403l-.869-1.056.487-1.276 1.344-.221.866 1.055-.482 1.277z"/><path fill="#6686A6" d="M969.618 71.513l-.865-1.055.484-1.278 1.344-.22.866 1.055-.484 1.277zm-2.278-1.337l-.556-.68.31-.824.868-.142.557.681-.309.824zm-2.524 2.054l-.495-.603.275-.73.772-.126.493.603-.276.73zm38.543-19.976l-.756-1.309.756-1.309h1.512l.756 1.309-.756 1.309z"/><path fill="#95B422" d="M968.826 23.49l-.95-1.174.541-1.411 1.494-.238.952 1.175-.543 1.411z"/><g transform="translate(973.373 17.095)"><mask id="d" fill="#fff"><use xlink:href="#c"/></mask><path fill="#46A1BE" mask="url(#d)" d="M.958 2.492l-.704-.867.4-1.043L1.755.407l.703.868-.398 1.042z"/></g><path fill="#ED7103" d="M964.51 23.742l-.704-.867.4-1.042 1.103-.176.703.868-.4 1.042z"/><path fill="#6686A6" d="M998.184 28.8l-.91-1.179.567-1.376 1.476-.199.908 1.177-.567 1.377zm-2.084-2.615l-.685-.884.424-1.032 1.109-.15.683.885-.425 1.032zm-1.956 2.563l-.685-.884.426-1.034 1.107-.148.682.884-.424 1.033zm-3.338 2.322l-.927-1.199.576-1.4 1.501-.202.927 1.198-.577 1.4z"/><path fill="#46A1BE" d="M964.875 33.12l-.706-.867.4-1.043 1.103-.174.702.867-.399 1.042z"/><path fill="#6686A6" d="M1015.717 60.13l-1.246-2.155 1.246-2.152h2.491l1.243 2.152-1.243 2.155zm-5.23 2.065l-.73-1.262.73-1.262h1.46l.728 1.262-.728 1.262zm3.134-1.25l-.532-.921.532-.921h1.066l.531.92-.53.922zm-3.149-1.681l-1.323-2.287 1.323-2.289h2.643l1.32 2.289-1.32 2.287zm-11.15 5.824l-1.53-2.645 1.53-2.644h3.052l1.53 2.644-1.53 2.645zm-10.478-.495l-1.325-2.287 1.325-2.288h2.64l1.322 2.288-1.322 2.287zm4.858 2.729l-1.46-2.522 1.46-2.525h2.914l1.455 2.525-1.455 2.522z"/><path fill="#ED7103" d="M983.257 62.989l-2.332-2.522 1.02-3.281 3.352-.755 2.332 2.522-1.02 3.28z"/><path fill="#6686A6" d="M984.336 68.396l-1.407-2.435 1.407-2.437h2.814l1.407 2.437-1.407 2.435z"/><path fill="#95B422" d="M974.773 53.176l-1.219-2.109 1.22-2.111h2.436l1.22 2.111-1.22 2.11z"/><path fill="#6686A6" d="M1005.106 62.473l-1.584-2.742 1.584-2.745h3.168l1.587 2.745-1.587 2.742zm-6.009-3.181l-1.953-3.38 1.953-3.379h3.905l1.952 3.38-1.952 3.379z"/><path fill="#46A1BE" d="M977.634 30.215l-2.003-2.47 1.14-2.97 3.14-.498 2.003 2.47-1.138 2.97z"/><path fill="#6686A6" d="M998.22 45.557l-1.247-2.155 1.246-2.156h2.49l1.247 2.156-1.247 2.155z"/><path fill="#D30340" d="M993.6 48.123l-1.248-2.156 1.248-2.156h2.49l1.247 2.156-1.248 2.156z"/><path fill="#6686A6" d="M994.261 42.821l-1.049-1.813 1.05-1.813h2.094l1.048 1.813-1.048 1.813zm.839-3.975l-1.426-1.793.84-2.133 2.266-.338 1.43 1.792-.841 2.132zm4.273-1.72l-1.305-1.637.769-1.95 2.07-.31 1.304 1.64-.767 1.949zm-3.085-3.594l-1.159-1.502.722-1.753 1.88-.254 1.161 1.5-.723 1.756zm1.983 7.016l-.75-1.301.75-1.3h1.502l.753 1.3-.753 1.3zm2.943.514l-.528-.917.528-.916h1.058l.53.916-.53.917z"/><path fill="#46A1BE" d="M972.365 27.537l-1.788-2.201 1.017-2.648 2.8-.445 1.785 2.203-1.015 2.647z"/><path fill="#FBB900" d="M985.749 45.423l-1.872-3.237 1.872-3.238h3.74l1.872 3.238-1.873 3.237z"/><path fill="#D30340" d="M985.941 37.95l-1.21-2.09 1.21-2.09h2.413l1.21 2.09-1.21 2.09z"/><path fill="#6686A6" d="M997.87 51.893l-1.64-2.838 1.64-2.838h3.28l1.638 2.838-1.637 2.838z"/><path fill="#95B422" d="M993.507 61.599l-1.471-2.547 1.471-2.545h2.942l1.47 2.545-1.47 2.547z"/><path fill="#6686A6" d="M1006.067 56.27l-1.367-2.368 1.367-2.367h2.737l1.367 2.367-1.367 2.369z"/><g transform="translate(1058.373 55.299)"><mask id="f" fill="#fff"><use xlink:href="#e"/></mask><path fill="#6686A6" mask="url(#f)" d="M.561 1.281l-.29-.5.29-.5h.578l.29.5-.29.5z"/></g><path fill="#6686A6" d="M1053.51 54.114l-.644-1.117.644-1.119h1.295l.643 1.119-.643 1.117zm-2.274 1.21l-.643-1.117.643-1.117h1.293l.647 1.117-.647 1.117zm-16.309.728l-.612-1.059.612-1.059h1.224l.612 1.06-.612 1.058zm9.017-.452l-.644-1.116.644-1.117h1.29l.646 1.117-.646 1.117zm-6.729 1.746l-.647-1.119.647-1.117h1.288l.647 1.117-.647 1.119zm-12.807 1.455l-.485-.845.485-.846h.976l.49.846-.49.845zm17.328-1.709l-.649-1.117.649-1.117h1.288l.646 1.117-.646 1.117zm-2.323-1.27l-.646-1.118.646-1.116h1.29l.647 1.116-.647 1.118zm9.831-2.067l-.646-1.118.646-1.118h1.288l.647 1.118-.647 1.118zm-.65 3.095l-.754-1.307.754-1.309h1.515l.755 1.309-.755 1.308zm-16.224 1.05l-.774-1.337.774-1.338h1.544l.776 1.338-.776 1.337zm-2.66-1.159l-.66-1.143.66-1.143h1.321l.661 1.143-.66 1.143zm-3.048 1.721l-.932-1.72.932-1.717h1.867l.932 1.718-.932 1.719zm19.722-3.687l-.756-1.308.756-1.308h1.512l.756 1.308-.756 1.308zm6.98 1.885l-.646-1.12.646-1.116h1.292l.645 1.117-.645 1.118zm3.674-.092l-.516-.893.516-.892h1.032l.516.892-.516.893zm-1.444.165l-.336-.578.336-.578h.666l.334.578-.334.578zm0-1.424l-.336-.579.336-.578h.666l.334.578-.334.579zm-23.669-.265l-.333-.578.333-.579h.67l.333.58-.334.577zm-17.579.928l-.412-.713.412-.714h.826l.412.714-.412.713zm4.365.116l-.326-.564.326-.565h.654l.327.565-.327.564zm14.738-1.211l-.245-.425.245-.424h.491l.246.424-.246.425zm6.674 2.476l-.336-.577.336-.577h.666l.337.577-.337.577zm6.093-.593l-.48-.834.48-.834h.965l.483.834-.483.835zm-15.949 1.475l-.334-.579.334-.579h.668l.332.58-.332.578zm13.934-1.217l-.334-.58.334-.577h.669l.332.578-.332.579zm-8.866.765l-.438-.758.438-.756h.874l.435.756-.435.758zm16.203-5.003l-.503-.871.503-.87h1.005l.504.87-.504.87zm-14.083 1.987l-.374-.646.374-.647h.745l.375.647-.375.646zm4.43-.215l-.368-.637.368-.637h.737l.367.637-.367.637zm9.406 2.768l-.505-.87.505-.87h1.005l.501.87-.501.87zm-27.107-.607l-.569-.987.569-.987h1.141l.568.987-.568.987z"/><path fill="#46A1BE" d="M995.907 50.18h-3.28l-.12.21 1.892 2.046-1.068 3.422h2.576l1.639-2.839z"/><path fill="#95B422" d="M981.14 33.492l-3.69.586-.368.957 1.327 1.436-.815 2.622-.21.048 1.08 1.333 3.694-.586 1.34-3.491z"/><path fill="#46A1BE" d="M989.75 56.724l-1.77-1.916-1.134 1.96 1.323 2.286h2.641l1.322-2.287-.297-.513z"/><path fill="#FBB900" d="M973.864 35.059l2.518-.567 1.168-3.042-2.888-3.556-4.523.717-1.641 4.275 2.887 3.556 2.154-.342z"/><path fill="#95B422" d="M988.356 50.559l3.515-.795-2.07-3.584h-4.235l-.464.802 1.035 1.336-1.212 2.95-.607.082 1.248 2.161h1.872z"/><path fill="#D30340" d="M974.913 39.699l-1.865-2.017.18-.581-2.946.467-1.518 3.952 2.667 3.289 4.184-.663 1.516-3.953-.681-.84z"/><path fill="#46A1BE" d="M981.022 46.22l2.912-.393.599-1.56-2.668-3.289-4.179.663-1.517 3.952 2.667 3.289 1.168-.185zm-1.031 9.932l-1.506-2.606 1.506-2.608h3.011l1.506 2.608-1.506 2.606zm-11.045-25.004l-1.12-1.377.635-1.658 1.755-.278 1.12 1.38-.637 1.655z"/><path fill="#ED7103" d="M980.821 44.541l-2.128-2.622 1.209-3.153 3.335-.53 2.13 2.625-1.21 3.152z"/></g></svg>